<svg width="1080" height="1920" viewBox="0 0 1080 1920" xmlns="http://www.w3.org/2000/svg">
  <rect width="1080" height="1920" fill="#f5f7fa"/>
  <rect x="40" y="40" width="1000" height="1840" rx="70" fill="none" stroke="#334155" stroke-width="4"/>
  <text x="90" y="140" fill="#0f172a" font-size="46" font-family="Arial" font-weight="700">Variant 2: Server List + Filters</text>
  <rect x="90" y="240" width="900" height="90" rx="24" fill="white" stroke="#cbd5e1" stroke-width="2"/>
  <text x="130" y="296" fill="#64748b" font-size="30" font-family="Arial">Search server, tag, IP...</text>
  <g font-family="Arial" font-size="28">
    <rect x="90" y="360" width="190" height="70" rx="22" fill="#2563eb"/><text x="157" y="405" fill="white">All</text>
    <rect x="310" y="360" width="190" height="70" rx="22" fill="#e2e8f0"/><text x="372" y="405" fill="#1e293b">Prod</text>
    <rect x="530" y="360" width="190" height="70" rx="22" fill="#e2e8f0"/><text x="576" y="405" fill="#1e293b">Staging</text>
    <rect x="750" y="360" width="220" height="70" rx="22" fill="#e2e8f0"/><text x="805" y="405" fill="#1e293b">Critical</text>
  </g>
  <g font-family="Arial">
    <rect x="90" y="470" width="900" height="180" rx="28" fill="white" stroke="#e2e8f0"/><circle cx="140" cy="560" r="11" fill="#22c55e"/><text x="180" y="545" fill="#0f172a" font-size="34">web-01</text><text x="180" y="595" fill="#64748b" font-size="28">Healthy · 12 ms</text><text x="930" y="575" fill="#94a3b8" font-size="52">›</text>
    <rect x="90" y="700" width="900" height="180" rx="28" fill="white" stroke="#e2e8f0"/><circle cx="140" cy="790" r="11" fill="#eab308"/><text x="180" y="775" fill="#0f172a" font-size="34">db-01</text><text x="180" y="825" fill="#64748b" font-size="28">Warning · 81% disk</text><text x="930" y="805" fill="#94a3b8" font-size="52">›</text>
    <rect x="90" y="930" width="900" height="180" rx="28" fill="white" stroke="#e2e8f0"/><circle cx="140" cy="1020" r="11" fill="#22c55e"/><text x="180" y="1005" fill="#0f172a" font-size="34">queue-02</text><text x="180" y="1055" fill="#64748b" font-size="28">Healthy · 18 ms</text><text x="930" y="1035" fill="#94a3b8" font-size="52">›</text>
    <rect x="90" y="1160" width="900" height="180" rx="28" fill="white" stroke="#e2e8f0"/><circle cx="140" cy="1250" r="11" fill="#ef4444"/><text x="180" y="1235" fill="#0f172a" font-size="34">backup-01</text><text x="180" y="1285" fill="#64748b" font-size="28">Critical · no backup 26h</text><text x="930" y="1265" fill="#94a3b8" font-size="52">›</text>
  </g>
  <rect x="710" y="1660" width="280" height="100" rx="40" fill="#2563eb"/>
  <text x="790" y="1720" fill="white" font-size="30" font-family="Arial">Filter</text>
</svg>
